<?xml version="1.0" encoding="UTF-8" standalone="no"?>
<!-- Created with Inkscape (http://www.inkscape.org/) -->

<svg
   xmlns:dc="http://purl.org/dc/elements/1.1/"
   xmlns:cc="http://creativecommons.org/ns#"
   xmlns:rdf="http://www.w3.org/1999/02/22-rdf-syntax-ns#"
   xmlns:svg="http://www.w3.org/2000/svg"
   xmlns="http://www.w3.org/2000/svg"
   xmlns:sodipodi="http://sodipodi.sourceforge.net/DTD/sodipodi-0.dtd"
   xmlns:inkscape="http://www.inkscape.org/namespaces/inkscape"
   width="293.99759mm"
   height="340.02948mm"
   viewBox="0 0 293.99759 340.02947"
   version="1.1"
   id="svg8"
   inkscape:version="0.92.4 (5da689c313, 2019-01-14)"
   sodipodi:docname="logo15.svg">
  <defs
     id="defs2" />
  <sodipodi:namedview
     id="base"
     pagecolor="#ffffff"
     bordercolor="#666666"
     borderopacity="1.0"
     inkscape:pageopacity="0.0"
     inkscape:pageshadow="2"
     inkscape:zoom="0.17623473"
     inkscape:cx="-403.77569"
     inkscape:cy="1344.4738"
     inkscape:document-units="mm"
     inkscape:current-layer="layer2"
     showgrid="false"
     fit-margin-top="0"
     fit-margin-left="0"
     fit-margin-right="0"
     fit-margin-bottom="0"
     inkscape:window-width="1360"
     inkscape:window-height="701"
     inkscape:window-x="1366"
     inkscape:window-y="24"
     inkscape:window-maximized="1"
     showguides="true"
     inkscape:guide-bbox="true">
    <sodipodi:guide
       position="-84.267504,433.51684"
       orientation="0,1"
       id="guide88"
       inkscape:locked="false" />
  </sodipodi:namedview>
  <metadata
     id="metadata5">
    <rdf:RDF>
      <cc:Work
         rdf:about="">
        <dc:format>image/svg+xml</dc:format>
        <dc:type
           rdf:resource="http://purl.org/dc/dcmitype/StillImage" />
        <dc:title></dc:title>
      </cc:Work>
    </rdf:RDF>
  </metadata>
  <g
     inkscape:groupmode="layer"
     id="layer2"
     inkscape:label="Camada 2"
     transform="translate(173.61859,-24.719409)">
    <path
       style="fill:#000000;fill-opacity:1;stroke:#000000;stroke-width:1.20000005;stroke-miterlimit:4;stroke-dasharray:none;stroke-opacity:1"
       inkscape:connector-curvature="0"
       d="m 84.545888,61.594149 c -4.376611,0.497733 -8.521519,2.780436 -11.576565,6.376122 -1.338728,1.570431 -2.823344,4.110581 -3.484126,5.93846 -0.128724,0.369009 -0.248866,0.686527 -0.248866,0.695109 -0.0086,0.0086 -0.240285,-0.04291 -0.523477,-0.111561 -0.995464,-0.231703 -2.3771,-0.37759 -3.56136,-0.37759 -1.793552,0 -2.891996,0.171632 -5.07172,0.772343 l -0.394753,0.111561 -0.677945,-0.574966 C 57.470971,73.102062 55.30841,71.866313 53.386134,71.20553 51.532511,70.579074 50.056477,70.330208 48.02264,70.330208 c -1.544686,0 -2.617384,0.137306 -4.093418,0.514896 -8.521519,2.196887 -14.674519,11.267627 -13.782034,20.312623 0.532059,5.414983 3.158026,11.688133 6.830946,16.296443 0.952557,1.20143 2.840506,3.09796 3.878879,3.89604 1.596176,1.21859 3.235259,2.05959 4.882925,2.48867 0.6522,0.17163 0.849577,0.25744 0.780924,0.3261 -0.06865,0.0687 -0.05149,0.12014 0.06865,0.19737 0.154469,0.10298 0.145887,0.14589 -0.21454,1.05554 -0.480569,1.21 -0.617874,1.83646 -0.446242,1.9566 0.171631,0.12014 2.171142,0.0343 3.338238,-0.1373 0.489151,-0.0687 0.909649,-0.11157 0.926812,-0.0944 0.01716,0.0172 0.128724,0.60929 0.240284,1.33014 0.943975,5.92988 2.557314,11.14749 5.423565,17.51503 0.506314,1.10702 2.025255,4.2393 3.389728,6.95109 4.007603,7.96371 5.260515,10.62401 6.633569,14.11671 1.34731,3.38973 2.849088,8.15251 2.737527,8.64166 -0.02574,0.13731 -0.0086,0.24029 0.03433,0.24029 0.05149,0 0.07723,0.92681 0.07723,2.46291 -0.0086,1.36448 0.01716,2.55732 0.06007,2.66888 0.04291,0.12014 0.120143,0.18879 0.205958,0.17163 0.120143,-0.0257 0.137306,-0.12014 0.120143,-0.49773 -0.04291,-0.81525 0.08582,-4.13633 0.154468,-4.05909 0.08582,0.0772 0.257448,2.66029 0.257448,3.79306 0,0.79809 0.08582,0.99546 0.317519,0.75518 0.120142,-0.12014 0.120142,-0.36901 0.03433,-2.22263 -0.06007,-1.14994 -0.120142,-2.15398 -0.145887,-2.2398 -0.02575,-0.0772 -0.01716,-0.14588 0.02575,-0.14588 0.04291,0 0.180213,0.87532 0.317519,1.9566 0.137305,1.0727 0.266029,2.07674 0.291774,2.23121 0.04291,0.29178 0.223121,0.44624 0.360427,0.30894 0.04291,-0.0429 -0.05149,-1.06412 -0.21454,-2.29129 -0.171632,-1.32156 -0.266029,-2.42 -0.248866,-2.72036 0.02575,-0.27461 0.0086,-0.52348 -0.03433,-0.54922 -0.145887,-0.0858 0.712272,-4.68555 1.364473,-7.30293 1.330147,-5.30343 3.02072,-9.82593 6.642151,-17.7639 3.338238,-7.29435 4.737038,-10.68408 6.058602,-14.65735 1.67341,-5.02881 2.849088,-10.12628 3.647176,-15.79013 0.21454,-1.54468 0.257448,-1.69915 0.411916,-1.73348 0.815252,-0.15447 1.433126,-0.33468 1.51036,-0.42908 0.120143,-0.14589 -0.0944,-0.58355 -0.823832,-1.65624 -0.291774,-0.43767 -0.549222,-0.86675 -0.566385,-0.96114 -0.02575,-0.15447 0.0944,-0.21454 0.849577,-0.47199 1.990929,-0.66936 3.767318,-1.82788 5.758247,-3.76732 4.797109,-4.668389 8.461449,-12.203025 9.113649,-18.750779 0.41192,-4.196397 -0.76376,-8.736058 -3.22668,-12.426142 -1.948019,-2.917741 -4.496751,-5.18328 -7.440237,-6.624987 -2.823343,-1.381636 -6.032858,-1.965185 -8.984925,-1.630503 z m -2.377101,42.839301 c 0.789506,0.34327 2.111071,0.7466 2.42859,0.7466 0.154469,0 0.188795,0.0343 0.145887,0.13731 -0.03433,0.0858 0,0.18879 0.08582,0.24886 0.120142,0.0858 0.102979,0.1888 -0.205958,0.94398 -0.446243,1.10702 -0.652201,1.90511 -0.514896,2.04242 0.120143,0.12014 1.613339,0.10298 2.728946,-0.0258 0.446243,-0.0515 0.832414,-0.0772 0.858159,-0.0515 0.102979,0.10298 -0.54064,4.29938 -1.055536,6.91676 -1.175677,5.86123 -2.746108,10.97586 -5.157535,16.77701 -0.909649,2.18831 -1.570431,3.67292 -3.758737,8.49578 -2.608803,5.7325 -3.921786,8.9935 -5.106046,12.61493 -1.149933,3.5442 -2.16256,7.73202 -2.720364,11.28479 -0.240284,1.52753 -0.231703,0.72944 0.0086,-1.39021 0.557803,-4.84002 0.695109,-7.42308 0.686527,-12.81232 -0.0086,-7.40591 -0.334682,-11.14748 -2.093908,-23.81391 -0.832414,-5.97279 -0.823832,-5.8269 -0.471987,-5.83548 0.05149,0 0.231703,-0.0429 0.411916,-0.0944 0.248866,-0.0687 0.317519,-0.12872 0.317519,-0.27461 0,-0.19738 -0.532059,-1.12419 -1.064117,-1.8622 -0.154469,-0.21454 -0.308937,-0.48057 -0.334682,-0.60072 -0.05149,-0.20595 -0.01716,-0.2317 0.497732,-0.37759 0.308937,-0.0858 0.91823,-0.31751 1.355891,-0.51489 3.981858,-1.81072 7.972297,-6.22165 10.79564,-11.95416 l 0.686528,-1.39021 0.386171,0.24886 c 0.205958,0.12873 0.703691,0.37759 1.089862,0.54064 z m -26.688745,8.44429 c 1.759226,1.82788 3.269586,2.99497 4.977322,3.85313 0.815251,0.41192 2.26554,0.93539 2.874833,1.02979 0.283192,0.0429 0.343264,0.0772 0.266029,0.17163 -0.06865,0.0858 -0.05149,0.13731 0.06865,0.21454 0.154469,0.0944 0.145887,0.13731 -0.205958,1.01263 -0.411916,1.02121 -0.59213,1.7249 -0.506314,1.94802 0.05149,0.12873 0.171632,0.13731 1.364473,0.0944 0.712272,-0.0343 1.67341,-0.11156 2.119653,-0.18021 0.446242,-0.0772 0.840995,-0.10298 0.86674,-0.0687 0.02575,0.0343 0.0944,0.44625 0.154469,0.91823 0.06007,0.47199 0.291774,2.23122 0.523477,3.90463 1.270075,9.20804 1.62192,12.1172 1.930858,16.17629 0.437661,5.77541 0.403334,12.6321 -0.08582,18.02134 -0.21454,2.42001 -0.583548,5.53513 -0.660783,5.53513 -0.03433,0 -0.128724,-0.22312 -0.205958,-0.49773 -1.321565,-4.7113 -2.600222,-8.18684 -4.737038,-12.84664 -0.454824,-0.99547 -2.222631,-4.59974 -3.930368,-8.02379 -3.389728,-6.77946 -4.522498,-9.19088 -5.741084,-12.27167 -1.930857,-4.87435 -3.303912,-10.00614 -3.861715,-14.39133 l -0.06007,-0.44624 0.48915,-0.13731 c 0.26603,-0.0772 0.506314,-0.20596 0.532059,-0.27461 0.06865,-0.17163 -0.145887,-0.60929 -0.789506,-1.57043 -0.780925,-1.17568 -0.780925,-1.11561 0.11156,-1.3988 0.832415,-0.26603 2.222632,-0.94397 2.934904,-1.43313 0.257448,-0.18021 0.506314,-0.3261 0.54064,-0.33468 0.04291,-0.009 0.506314,0.43766 1.029791,0.99547 z"
       id="path890" />
    <path
       style="fill:#000000;fill-opacity:1;stroke:#000000;stroke-width:0.99999994px;stroke-linecap:butt;stroke-linejoin:miter;stroke-opacity:1"
       d="m 677.03906,318.88086 -504.58789,210.64648 12.3711,29.61719 36.74023,-13.87109 43.11133,15.37109 -54.73438,211.81445 211.55274,-0.0117 V 585.38672 c 0,0 44.60025,-24.9248 118.78515,-24.74414 83.93313,0.20447 118.78516,24.74414 118.78516,24.74414 v 185.19726 h 36.31445 V 585.38672 c 0,0 34.85206,-24.53967 118.78516,-24.74414 74.18488,-0.18066 118.78516,24.74414 118.78516,24.74414 v 187.06055 l 211.55273,0.0117 -54.7344,-211.81445 43.1133,-15.37109 36.7383,13.87109 12.3711,-29.61719 z"
       transform="matrix(0.26458333,0,0,0.26458333,-192.52849,47.122578)"
       id="path838"
       inkscape:connector-curvature="0"
       sodipodi:nodetypes="ccccccccsccccscccccccc" />
    <path
       style="fill:#000000;fill-opacity:1;stroke-width:1.10551798"
       d="m -91.313159,210.08931 -0.22689,-62.52914 c 0,0 -0.269205,-48.965471 -1.213816,-49.290788 -0.667626,-0.23012 -3.398742,-1.089154 -6.069127,-1.909471 -6.713598,-2.062188 -12.191308,-5.672267 -17.151358,-11.303444 -3.12701,-3.550122 -6.46365,-5.663837 -12.95178,-8.204703 -12.38969,-4.852029 -13.63339,-5.064116 -16.1736,-2.758121 -2.79806,2.540084 -7.99455,2.608549 -9.90652,0.130548 -0.80113,-1.038308 -2.06714,-1.887842 -2.81332,-1.887842 -1.76012,0 -5.26958,-4.952871 -5.79661,-8.180775 -0.59749,-3.659163 1.84576,-9.289351 4.39034,-10.117109 1.20763,-0.392839 2.74529,-2.32323 3.41688,-4.289775 1.71207,-5.013038 6.01495,-7.165309 9.63953,-4.821737 2.5735,1.663883 2.88425,1.585055 4.4663,-1.133356 2.02352,-3.476901 7.4375,-3.998645 9.79444,-0.943896 1.38664,1.797152 1.66519,1.797345 3.05044,9.25e-4 0.83852,-1.08672 2.50037,-2.293264 3.69302,-2.681273 1.20155,-0.390827 2.63181,-2.296323 3.20759,-4.273171 2.20726,-7.579179 10.60358,-10.476442 16.31201,-5.628751 1.49993,1.273796 4.44591,2.371829 6.546626,2.440157 3.235558,0.105246 4.031427,-0.407103 5.206087,-3.351188 1.594299,-3.995909 6.762143,-5.918451 9.955334,-3.703512 1.089299,0.755587 3.065978,1.373756 4.39264,1.373756 3.739296,0 5.43255,1.254405 7.001561,5.186837 1.00181,2.510849 2.183277,3.623192 3.848367,3.623192 1.321498,0 3.24426,1.090689 4.272802,2.423771 2.239037,2.901938 5.898458,2.132255 5.898458,-1.240596 0,-3.011969 3.615981,-6.217478 7.013561,-6.217478 2.825332,0 6.581407,3.835253 6.581407,6.720154 0,2.265535 4.189212,4.607022 8.242477,4.607022 1.81266,0 3.5633,0.561044 3.890271,1.246755 0.351275,0.736667 1.733285,0.155527 3.377936,-1.420413 3.347181,-3.207345 7.187048,-2.443672 8.858592,1.761736 0.615802,1.549326 2.376336,4.132318 3.912314,5.739939 1.926598,2.016572 2.792618,4.065626 2.792618,6.607555 0,4.2611 -2.994445,8.718784 -5.856883,8.718784 -1.084926,0 -2.243803,0.991109 -2.575241,2.202493 -0.959912,3.50813 -3.381658,6.607586 -5.16282,6.607586 -0.902631,0 -2.43205,1.132714 -3.398736,2.517132 -1.922232,2.752945 -4.480231,3.202752 -7.257614,1.276234 -1.43244,-0.993585 -2.72127,-0.242593 -6.466198,3.768377 -10.136655,10.856474 -23.571977,17.609815 -35.033653,17.609815 h -6.107898 v 48.833271 l -0.09811,62.25053 z M -68.723592,93.051112 c 6.418299,-2.166738 16.720469,-8.980059 21.865657,-14.460813 3.385111,-3.605944 3.385374,-3.607123 1.443617,-6.117567 -1.817234,-2.349491 -2.324173,-2.4064 -7.883247,-0.885086 -3.267625,0.894212 -7.41893,3.062886 -9.22515,4.819228 -5.139682,4.997723 -10.638657,8.175696 -17.174117,9.925244 -5.646498,1.511561 -6.01679,1.827561 -6.01679,5.134603 0,3.453759 0.112054,3.523919 5.622353,3.523919 3.092331,0 8.207767,-0.872794 11.367677,-1.939528 z m -22.816457,-4.846843 v -5.52773 l -11.409971,-0.533067 c -6.27553,-0.293237 -11.49269,-0.483227 -11.59365,-0.422307 -0.10086,0.0611 1.29215,1.421401 3.09581,3.023242 4.48329,3.981519 13.989097,8.921439 17.237405,8.957779 2.511321,0.0285 2.670406,-0.299317 2.670406,-5.497917 z m 19.684286,-9.250276 c 3.08211,-1.765103 5.419534,-3.448098 5.194322,-3.739999 -0.225174,-0.291839 -4.604142,-0.131679 -9.730865,0.356046 l -9.321316,0.886814 v 3.71392 c 0,3.665279 0.05397,3.702659 4.12703,2.853175 2.269868,-0.47339 6.648743,-2.304897 9.730829,-4.069956 z m -19.684286,-4.729898 c 0,-2.672598 -0.477384,-4.414132 -1.213816,-4.428215 -3.267133,-0.06253 -17.674375,-3.915438 -18.678255,-4.995261 -0.76745,-0.825498 -1.75951,-0.62932 -3.00763,0.594746 -1.02436,1.004545 -3.02328,1.844512 -4.44201,1.866522 -1.97599,0.0321 -2.4728,0.555324 -2.12341,2.242542 1.47485,7.122172 5.07182,8.696891 20.48281,8.967166 l 8.982311,0.157624 z M -123.4832,72.02804 c -1.12247,-3.93287 -6.05143,-5.63876 -8.87806,-3.072701 -2.11636,1.921243 -2.07409,1.984068 2.58391,3.837989 6.66727,2.653597 7.24978,2.582772 6.29415,-0.765288 z m 55.659617,-1.580147 c 6.71456,-0.742641 7.733036,-1.461803 10.351462,-7.308984 0.930905,-2.078776 0.699022,-2.200797 -2.686829,-1.413808 -2.0381,0.473737 -4.36113,1.572132 -5.162262,2.440915 -2.474205,2.683093 -5.230857,3.177459 -7.858419,1.409251 -3.48181,-2.343101 -12.533991,-0.07428 -12.533991,3.141453 0,3.460324 1.203208,3.576774 17.890039,1.731173 z m 16.410089,-5.163494 c -0.458031,-1.547138 -3.225978,-2.604059 -3.225978,-1.23186 0,0.289333 -0.243876,1.349946 -0.54188,2.356587 -0.409071,1.38167 0.05011,1.683552 1.873286,1.23186 1.56947,-0.388878 2.232867,-1.214072 1.894572,-2.356587 z m -40.126555,-3.488158 v -4.247142 l -3.884243,2.490804 c -4.202669,2.694974 -4.856178,4.231078 -2.184881,5.13586 4.906231,1.661759 6.069124,1.014203 6.069124,-3.379522 z m 9.087727,-0.263652 c 1.174081,-0.583913 1.265385,-1.339859 0.444122,-3.676103 -1.283894,-3.652051 -3.705422,-2.737495 -3.705422,1.3994 0,3.088863 0.677423,3.56179 3.2613,2.276703 z"
       id="path2130-7"
       inkscape:connector-curvature="0"
       sodipodi:nodetypes="cccccsccscccccccccccccscscssssccccsscscccsccccccccccsscscccccsccccsccscccccccsccccsccccsscscccsccssccsc" />
    <path
       style="fill:#000000;fill-opacity:1;stroke-width:0.7627061"
       d="m -117.89317,232.50167 -0.17464,-55.0144 c 0,0 -0.20723,-30.2776 -0.93435,-30.47876 -0.51391,-0.14229 -2.61621,-0.67349 -4.67178,-1.18072 -5.16779,-1.27515 -9.38427,-3.50744 -13.20225,-6.98949 -2.40704,-2.19522 -4.9754,-3.50224 -9.96963,-5.07339 -9.53697,-3.00026 -10.49431,-3.1314 -12.44964,-1.7055 -2.15381,1.57068 -6.15381,1.61301 -7.62555,0.0808 -0.61666,-0.64203 -1.59117,-1.16735 -2.16554,-1.16735 -1.35486,0 -4.05627,-3.06262 -4.46194,-5.05859 -0.45993,-2.26266 1.42077,-5.7441 3.37945,-6.25594 0.92958,-0.24291 2.11319,-1.43658 2.63015,-2.65259 1.31787,-3.09981 4.62999,-4.43069 7.42004,-2.98153 1.98094,1.02887 2.22012,0.98012 3.43792,-0.70081 1.5576,-2.14994 5.72503,-2.47257 7.53928,-0.58366 1.06736,1.11127 1.28178,1.11139 2.34809,5.7e-4 0.64542,-0.67197 1.92463,-1.41804 2.84267,-1.65796 0.9249,-0.24168 2.02585,-1.41994 2.46904,-2.64233 1.69905,-4.68659 8.16211,-6.47812 12.55617,-3.48055 1.15456,0.78766 3.42224,1.46663 5.03929,1.50888 2.49061,0.0651 3.10324,-0.25173 4.00743,-2.07221 1.22723,-2.47088 5.20523,-3.65969 7.66318,-2.29008 0.83849,0.46722 2.36004,0.84947 3.38123,0.84947 2.87833,0 4.18171,0.77566 5.38946,3.20729 0.77114,1.55259 1.68057,2.24041 2.96227,2.24041 1.017224,0 2.497268,0.67443 3.288972,1.49874 1.723489,1.79442 4.540324,1.31848 4.540324,-0.76712 0,-1.86246 2.783401,-3.8446 5.398689,-3.8446 2.174798,0 5.066037,2.37154 5.066037,4.15543 0,1.40089 3.224647,2.84876 6.344648,2.84876 1.395294,0 2.742848,0.34691 2.994535,0.77093 0.270393,0.45551 1.334198,0.0962 2.600165,-0.87831 2.576494,-1.98327 5.532234,-1.51106 6.818905,1.08936 0.474012,0.95804 1.829184,2.55523 3.011504,3.5493 1.482994,1.24695 2.149615,2.51399 2.149615,4.0858 0,2.63486 -2.304973,5.39128 -4.508334,5.39128 -0.835122,0 -1.727167,0.61285 -1.98229,1.36191 -0.738894,2.16926 -2.603033,4.08581 -3.974083,4.08581 -0.6948,0 -1.872072,0.70042 -2.616179,1.55647 -1.479638,1.7023 -3.448657,1.98043 -5.586549,0.78917 -1.102621,-0.61439 -2.094697,-0.15 -4.977355,2.33018 -7.802692,6.71311 -18.144494,10.88904 -26.967114,10.88904 h -4.70155 v 30.19585 l -0.0755,55.04648 z m 17.38836,-88.71987 c 4.940454,-1.3398 12.870542,-5.55282 16.83105,-8.94187 2.605689,-2.22973 2.605891,-2.23047 1.111226,-3.7828 -1.398818,-1.45281 -1.789033,-1.488 -6.068129,-0.5473 -2.515257,0.55294 -5.710722,1.89395 -7.101056,2.97998 -3.956234,3.09035 -8.189071,5.05545 -13.219741,6.13729 -4.34639,0.93468 -4.63142,1.13008 -4.63142,3.17499 0,2.13564 0.0862,2.17901 4.3278,2.17901 2.38033,0 6.31792,-0.53969 8.75027,-1.1993 z m -17.563,-2.99705 v -3.41808 l -8.78292,-0.32962 c -4.8306,-0.18132 -8.8465,-0.29881 -8.92422,-0.26113 -0.0777,0.0378 0.99463,0.87892 2.38301,1.86942 3.451,2.46198 10.76814,5.51658 13.26855,5.53906 1.93312,0.0176 2.05558,-0.18509 2.05558,-3.39965 z m 15.15201,-5.71992 c 2.37245,-1.09145 4.171681,-2.13214 3.998321,-2.31264 -0.173317,-0.18045 -3.544031,-0.0814 -7.490321,0.22016 l -7.17508,0.54836 v 2.29652 c 0,2.26642 0.0415,2.28955 3.17678,1.76426 1.74723,-0.29271 5.11786,-1.42523 7.4903,-2.51666 z m -15.15201,-2.92475 c 0,-1.6526 -0.36748,-2.72948 -0.93435,-2.73819 -2.51491,-0.0386 -13.60495,-2.42112 -14.37767,-3.08882 -0.59074,-0.51046 -1.35438,-0.38915 -2.31511,0.36775 -0.78851,0.62117 -2.32717,1.14056 -3.41925,1.15417 -1.52101,0.0198 -1.90342,0.34339 -1.63448,1.38668 1.13526,4.40401 3.90401,5.37774 15.76663,5.54487 l 6.91423,0.0974 z m -24.5883,-1.35793 c -0.86405,-2.4319 -4.65811,-3.48674 -6.83392,-1.90001 -1.62908,1.18801 -1.59653,1.22685 1.98897,2.37323 5.13213,1.64085 5.58051,1.59706 4.84495,-0.47322 z m 42.844077,-0.97708 c 5.168499,-0.45922 5.952471,-0.90392 7.968006,-4.51953 0.716564,-1.28541 0.538071,-1.36086 -2.068187,-0.87423 -1.568827,0.29294 -3.356964,0.97213 -3.973628,1.50934 -1.904501,1.6591 -4.026438,1.96479 -6.049008,0.87141 -2.68012,-1.44886 -9.64803,-0.0459 -9.64803,1.94253 0,2.1397 0.92617,2.21171 13.770847,1.07048 z m 12.631632,-3.19286 c -0.352568,-0.95668 -2.483196,-1.61023 -2.483196,-0.76173 0,0.17892 -0.187725,0.83475 -0.417112,1.45721 -0.314882,0.85436 0.03859,1.04103 1.441961,0.76172 1.208101,-0.24047 1.718751,-0.75072 1.458347,-1.4572 z m -30.887409,-2.15691 v -2.62623 l -2.98994,1.54019 c -3.23504,1.66645 -3.73809,2.6163 -1.68184,3.17577 3.77663,1.02756 4.67178,0.62714 4.67178,-2.08973 z m 6.99531,-0.16303 c 0.90374,-0.36106 0.97403,-0.82851 0.34187,-2.27312 -0.98828,-2.25826 -2.85225,-1.69275 -2.85225,0.86532 0,1.91 0.52144,2.20243 2.51038,1.4078 z"
       id="path2130-7-3"
       inkscape:connector-curvature="0"
       sodipodi:nodetypes="cccccsccscccccccccccccscscssssccccsscscccsccccccccccsscscccccsccccsccscccccccsccccsccccsscscccsccssccsc" />
    <g
       id="g935"
       transform="matrix(0.96445028,0,0,0.96445028,1.1930774,0.46585276)"
       style="fill:#000000;fill-opacity:1">
      <text
         id="text819"
         y="297.46359"
         x="-147.91216"
         style="font-style:normal;font-variant:normal;font-weight:bold;font-stretch:normal;font-size:29.92476654px;line-height:1.25;font-family:'Latin Modern Sans';-inkscape-font-specification:'Latin Modern Sans, Bold';font-variant-ligatures:normal;font-variant-caps:normal;font-variant-numeric:normal;font-feature-settings:normal;text-align:justify;letter-spacing:0px;word-spacing:0px;writing-mode:lr-tb;text-anchor:start;fill:#000000;fill-opacity:1;stroke:none;stroke-width:0.74812287"
         xml:space="preserve"><tspan
           sodipodi:role="line"
           id="tspan66"
           style="font-style:normal;font-variant:normal;font-weight:600;font-stretch:normal;font-size:27.51662064px;font-family:'Latin Modern Sans Demi Cond';-inkscape-font-specification:'Latin Modern Sans Demi Cond, Semi-Bold';font-variant-ligatures:normal;font-variant-caps:normal;font-variant-numeric:normal;font-feature-settings:normal;text-align:justify;writing-mode:lr-tb;text-anchor:start;fill:#000000;fill-opacity:1;stroke-width:0.74812287"
           x="-147.91216"
           y="297.46359">XXV MARATONA SBC</tspan><tspan
           sodipodi:role="line"
           id="tspan68"
           style="font-style:normal;font-variant:normal;font-weight:600;font-stretch:normal;font-size:30.35983849px;font-family:'Latin Modern Sans Demi Cond';-inkscape-font-specification:'Latin Modern Sans Demi Cond, Semi-Bold';font-variant-ligatures:normal;font-variant-caps:normal;font-variant-numeric:normal;font-feature-settings:normal;text-align:justify;writing-mode:lr-tb;text-anchor:start;fill:#000000;fill-opacity:1;stroke-width:0.74812287"
           x="-147.91216"
           y="336.09433">DE PROGRAMAÇÃO</tspan><tspan
           sodipodi:role="line"
           id="tspan70"
           x="-147.91216"
           y="376.97021"
           style="font-style:normal;font-variant:normal;font-weight:bold;font-stretch:normal;font-size:33.65187073px;font-family:'Latin Modern Sans';-inkscape-font-specification:'Latin Modern Sans, Bold';font-variant-ligatures:normal;font-variant-caps:normal;font-variant-numeric:normal;font-feature-settings:normal;text-align:justify;writing-mode:lr-tb;text-anchor:start;fill:#000000;fill-opacity:1;stroke-width:0.74812287">GRAMADO - RS</tspan></text>
      <flowRoot
         xml:space="preserve"
         id="flowRoot72"
         style="font-style:normal;font-weight:normal;font-size:40px;line-height:1.25;font-family:sans-serif;letter-spacing:0px;word-spacing:0px;fill:#000000;fill-opacity:1;stroke:none"
         transform="matrix(0.2743359,0,0,0.2743359,-195.85014,-20.921759)"><flowRegion
           id="flowRegion74"
           style="fill:#000000;fill-opacity:1"><rect
             id="rect76"
             width="1935.6637"
             height="943.54932"
             x="-27.75145"
             y="1174.2236"
             style="fill:#000000;fill-opacity:1" /></flowRegion><flowPara
           id="flowPara78" /></flowRoot>      <flowRoot
         xml:space="preserve"
         id="flowRoot80"
         style="font-style:normal;font-weight:normal;font-size:40px;line-height:1.25;font-family:sans-serif;letter-spacing:0px;word-spacing:0px;fill:#000000;fill-opacity:1;stroke:none"
         transform="matrix(0.2743359,0,0,0.2743359,-195.85014,-20.921759)"><flowRegion
           id="flowRegion82"
           style="fill:#000000;fill-opacity:1"><rect
             id="rect84"
             width="1216.6407"
             height="1049.8433"
             x="-392.46478"
             y="-155.97285"
             style="fill:#000000;fill-opacity:1" /></flowRegion><flowPara
           id="flowPara86" /></flowRoot>    </g>
  </g>
</svg>
